<?xml version="1.0" standalone="no"?>
<!DOCTYPE svg PUBLIC "-//W3C//DTD SVG 20010904//EN"
 "http://www.w3.org/TR/2001/REC-SVG-20010904/DTD/svg10.dtd">
<svg version="1.0" xmlns="http://www.w3.org/2000/svg"
 width="840.000000pt" height="880.000000pt" viewBox="0 0 840.000000 880.000000"
 preserveAspectRatio="xMidYMid meet">

<g transform="translate(0.000000,880.000000) scale(0.100000,-0.100000)"
fill="#000000" stroke="none">
<path d="M1495 8386 c-179 -25 -322 -72 -495 -162 -401 -208 -691 -604 -776
-1059 -18 -96 -19 -204 -19 -2765 0 -2561 1 -2669 19 -2765 114 -609 560
-1065 1181 -1207 l100 -22 2630 -4 c1884 -2 2658 0 2730 8 498 56 935 356
1164 800 68 131 109 247 143 400 l23 105 0 2685 0 2685 -23 105 c-84 379 -279
689 -576 912 -169 126 -406 231 -623 275 -83 17 -237 18 -2738 19 -2071 2
-2670 -1 -2740 -10z m3105 -1611 c734 -115 1255 -536 1409 -1139 39 -151 55
-298 54 -506 -2 -821 -408 -1520 -1012 -1740 -141 -52 -267 -73 -436 -72 -241
0 -340 35 -594 206 -79 53 -147 93 -151 89 -4 -4 -21 -80 -39 -168 -109 -543
-230 -879 -414 -1148 -60 -89 -168 -206 -243 -265 l-42 -32 -6 43 c-26 184
-33 484 -16 703 27 327 78 579 252 1234 38 146 85 332 104 413 l34 148 -19 37
c-116 233 -106 586 26 852 109 220 306 345 491 312 96 -17 168 -50 226 -103
73 -66 98 -126 104 -249 7 -145 -16 -253 -134 -630 -104 -334 -118 -403 -119
-560 0 -125 2 -139 26 -190 65 -136 211 -210 417 -210 117 0 164 11 280 66
194 93 366 312 476 606 43 117 89 298 107 428 20 140 17 442 -5 565 -49 272
-152 474 -312 610 -231 196 -473 286 -774 287 -596 2 -1172 -400 -1355 -946
-56 -167 -77 -365 -56 -534 14 -113 38 -178 109 -302 84 -144 101 -192 102
-282 0 -109 -56 -268 -94 -268 -32 0 -157 45 -229 82 -84 44 -207 151 -257
223 -76 111 -129 249 -157 415 -25 145 -22 450 5 601 63 346 227 647 493 904
314 303 710 487 1149 535 124 13 476 4 600 -15z"/>
</g>
</svg>
